<svg xmlns="http://www.w3.org/2000/svg" width="800" height="800" viewBox="0 0 24 24" fill="none" stroke="none">
  <defs>
    <linearGradient id="g" x1="0" x2="1">
      <stop offset="0" stop-color="#E9F5FF" />
      <stop offset="1" stop-color="#CDE8FF" />
    </linearGradient>
  </defs>
  <rect width="24" height="24" rx="4" fill="#F8FAFC" />
  <g transform="translate(3 2)">
    <ellipse cx="8.5" cy="12.5" rx="6.8" ry="7" fill="#FDF2E9" />
    <path d="M1 9c0-4.5 3.6-7.5 7.5-7.5S16 4.5 16 9c0 3.4-2 7-3.6 9.2-.7.9-2 1.3-3.4 1.3s-2.7-.4-3.4-1.3C3 16 1 12.4 1 9z" fill="#274060" />
    <path d="M2 9c0-3.2 2.5-5.2 6-5.2s6 2 6 5.2c0 2.1-1.3 4.3-2.3 6-.5.9-1.5 1.5-3.7 1.5S3.5 16 3 15c-1.1-1.7-1-4-1-6z" fill="#1F6FEB" opacity="0.95" />
    <circle cx="8.5" cy="8" r="2.7" fill="#FFF1E6" />
    <path d="M7 9.5c0 .8.6 1.4 1.5 1.4S10 10.3 10 9.5" stroke="#D8B4A6" stroke-width="0.5" stroke-linecap="round" stroke-linejoin="round" fill="none"/>
    <path d="M6.2 4.6c.9-.7 2.5-1.1 4.3-1.1s3.3.4 4.3 1.1" stroke="#A0AEC0" stroke-width="0.4" stroke-linecap="round" />
  </g>
</svg>
